<svg xmlns="http://www.w3.org/2000/svg" width="112" height="112" fill="none" viewBox="0 0 112 112"><path fill="#82F9A1" fill-rule="evenodd" d="M48 92.0007V104.001H64V92.0007H76V76.0007H88V68.0007H100V52.0007H112V16.0007H100V4.00073H64V16.0007H48V4.00073H12V16.0007H0V52.0007H12V68.0007H24V76.0007H36V92.0007H48ZM32.0009 20.0007H16.0009V44.0007H32.0009V20.0007Z" clip-rule="evenodd"/><rect width="4" height="4" x="12" y="4.001" fill="#F11822"/><rect width="16" height="24" x="16" y="20" fill="#fff"/><rect width="4" height="4" x="12" y="12.001" fill="#F11822"/><rect width="4" height="4" x="12" y="8" fill="#F11822"/><rect width="4" height="4" x="16" y="4.001" fill="#F11822"/><rect width="4" height="4" x="16" y="8" fill="#F11822"/><rect width="4" height="4" x="16" y="12.001" fill="#FE4422"/><rect width="4" height="4" x="16" y="15.999" fill="#FE4422"/><rect width="4" height="4" x="12" y="15.999" fill="#FE4422"/><rect width="4" height="4" x="20" y="4.001" fill="#F11822"/><rect width="4" height="4" x="20" y="12.001" fill="#FE4422"/><rect width="4" height="4" x="20" y="8" fill="#FE4422"/><rect width="4" height="4" x="24" y="4.001" fill="#FE4422"/><rect width="4" height="4" x="24" y="8" fill="#FE4422"/><rect width="4" height="4" x="24" y="12.001" fill="#FE4422"/><rect width="4" height="4" x="24" y="15.999" fill="#FE4422"/><rect width="4" height="4" x="20" y="15.999" fill="#FE4422"/><rect width="4" height="4" x="28" y="4.001" fill="#FE4422"/><rect width="4" height="4" x="28" y="12.001" fill="#FE4422"/><rect width="4" height="4" x="28" y="8" fill="#FE4422"/><rect width="4" height="4" x="32" y="4.001" fill="#FE4422"/><rect width="4" height="4" x="32" y="8" fill="#FE4422"/><rect width="4" height="4" x="32" y="12.001" fill="#FF8825"/><rect width="4" height="4" x="32" y="15.999" fill="#FF8825"/><rect width="4" height="4" x="28" y="15.999" fill="#FF8825"/><rect width="4" height="4" x="36" y="4.001" fill="#FE4422"/><rect width="4" height="4" x="36" y="12.001" fill="#FF8825"/><rect width="4" height="4" x="36" y="8" fill="#FF8825"/><rect width="4" height="4" x="40" y="4.001" fill="#FF8825"/><rect width="4" height="4" x="40" y="8" fill="#FF8825"/><rect width="4" height="4" x="40" y="12.001" fill="#FF8825"/><rect width="4" height="4" x="40" y="15.999" fill="#FF8825"/><rect width="4" height="4" x="44" y="4.001" fill="#FF8825"/><rect width="4" height="4" x="44" y="8" fill="#FF8825"/><rect width="4" height="4" x="44" y="12.001" fill="#FF8825"/><rect width="4" height="4" x="44" y="15.999" fill="#FFAA01"/><rect width="4" height="4" x="36" y="15.999" fill="#FF8825"/><rect width="4" height="4" x="32" y="20" fill="#FF8825"/><rect width="4" height="4" x="32" y="23.999" fill="#FF8825"/><rect width="4" height="4" x="32" y="28" fill="#FFAA01"/><rect width="4" height="4" x="32" y="32.001" fill="#FFAA01"/><rect width="4" height="4" x="36" y="20" fill="#FF8825"/><rect width="4" height="4" x="36" y="28" fill="#FFAA01"/><rect width="4" height="4" x="36" y="23.999" fill="#FFAA01"/><rect width="4" height="4" x="40" y="20" fill="#FFAA01"/><rect width="4" height="4" x="40" y="23.999" fill="#FFAA01"/><rect width="4" height="4" x="40" y="28" fill="#FFAA01"/><rect width="4" height="4" x="40" y="32.001" fill="#FFAA01"/><rect width="4" height="4" x="44" y="20" fill="#FFAA01"/><rect width="4" height="4" x="44" y="23.999" fill="#FFAA01"/><rect width="4" height="4" x="44" y="28" fill="#FFAA01"/><rect width="4" height="4" x="44" y="32.001" fill="#FFF900"/><rect width="4" height="4" x="36" y="32.001" fill="#FFAA01"/><rect width="4" height="4" x="32" y="36" fill="#FFAA01"/><rect width="4" height="4" x="32" y="40.001" fill="#FFAA01"/><rect width="4" height="4" x="32" y="40.001" fill="#FFAA01"/><rect width="4" height="4" x="32" y="43.999" fill="#FFF900"/><rect width="4" height="4" x="32" y="48" fill="#FFF900"/><rect width="4" height="4" x="36" y="36" fill="#FFAA01"/><rect width="4" height="4" x="36" y="43.999" fill="#FFF900"/><rect width="4" height="4" x="36" y="40.001" fill="#FFF900"/><rect width="4" height="4" x="40" y="36" fill="#FFF900"/><rect width="4" height="4" x="40" y="40.001" fill="#FFF900"/><rect width="4" height="4" x="40" y="43.999" fill="#FFF900"/><rect width="4" height="4" x="40" y="48" fill="#FFF900"/><rect width="4" height="4" x="44" y="36" fill="#FFF900"/><rect width="4" height="4" x="44" y="40.001" fill="#FFF900"/><rect width="4" height="4" x="44" y="43.999" fill="#FFF900"/><rect width="4" height="4" x="44" y="48" fill="#DEEF18"/><rect width="4" height="4" x="36" y="48" fill="#FFF900"/><rect width="4" height="4" x="32" y="51.999" fill="#FFF900"/><rect width="4" height="4" x="32" y="56" fill="#FFF900"/><rect width="4" height="4" x="32" y="60.001" fill="#DEEF18"/><rect width="4" height="4" x="32" y="64" fill="#DEEF18"/><rect width="4" height="4" x="28" y="43.999" fill="#FFAA01"/><rect width="4" height="4" x="28" y="48" fill="#FFF900"/><rect width="4" height="4" x="28" y="51.999" fill="#FFF900"/><rect width="4" height="4" x="28" y="56" fill="#FFF900"/><rect width="4" height="4" x="28" y="60.001" fill="#FFF900"/><rect width="4" height="4" x="28" y="64" fill="#DEEF18"/><rect width="4" height="4" x="36" y="51.999" fill="#FFF900"/><rect width="4" height="4" x="36" y="60.001" fill="#DEEF18"/><rect width="4" height="4" x="36" y="56" fill="#DEEF18"/><rect width="4" height="4" x="40" y="51.999" fill="#DEEF18"/><rect width="4" height="4" x="40" y="56" fill="#DEEF18"/><rect width="4" height="4" x="40" y="60.001" fill="#DEEF18"/><rect width="4" height="4" x="40" y="64" fill="#B6E718"/><rect width="4" height="4" x="44" y="51.999" fill="#DEEF18"/><rect width="4" height="4" x="44" y="56" fill="#DEEF18"/><rect width="4" height="4" x="44" y="60.001" fill="#B6E718"/><rect width="4" height="4" x="44" y="64" fill="#B6E718"/><rect width="4" height="4" x="36" y="64" fill="#DEEF18"/><rect width="4" height="4" x="16" y="43.999" fill="#FFAA01"/><rect width="4" height="4" x="16" y="48" fill="#FFAA01"/><rect width="4" height="4" x="20" y="43.999" fill="#FFAA01"/><rect width="4" height="4" x="24" y="43.999" fill="#FFAA01"/><rect width="4" height="4" x="24" y="48" fill="#FFAA01"/><rect width="4" height="4" x="20" y="48" fill="#FFAA01"/><rect width="4" height="4" x="16" y="51.999" fill="#FFAA01"/><rect width="4" height="4" x="16" y="56" fill="#FFAA01"/><rect width="4" height="4" x="16" y="60.001" fill="#FFF900"/><rect width="4" height="4" x="16" y="64" fill="#FFF900"/><rect width="4" height="4" x="12" y="51.999" fill="#FFAA01"/><rect width="4" height="4" x="12" y="56" fill="#FFAA01"/><rect width="4" height="4" x="12" y="60.001" fill="#FFAA01"/><rect width="4" height="4" x="12" y="64" fill="#FFF900"/><rect width="4" height="4" x="20" y="51.999" fill="#FFAA01"/><rect width="4" height="4" x="20" y="60.001" fill="#FFF900"/><rect width="4" height="4" x="20" y="56" fill="#FFF900"/><rect width="4" height="4" x="24" y="51.999" fill="#FFF900"/><rect width="4" height="4" x="24" y="56" fill="#FFF900"/><rect width="4" height="4" x="24" y="60.001" fill="#FFF900"/><rect width="4" height="4" x="24" y="64" fill="#FFF900"/><rect width="4" height="4" x="20" y="64" fill="#FFF900"/><rect width="4" height="4" x="48" y="15.999" fill="#FFAA01"/><rect width="4" height="4" x="56" y="15.999" fill="#FFAA01"/><rect width="4" height="4" x="60" y="15.999" fill="#FFF900"/><rect width="4" height="4" x="52" y="15.999" fill="#FFAA01"/><rect width="4" height="4" x="48" y="20" fill="#FFAA01"/><rect width="4" height="4" x="48" y="23.999" fill="#FFAA01"/><rect width="4" height="4" x="48" y="28" fill="#FFF900"/><rect width="4" height="4" x="48" y="32.001" fill="#FFF900"/><rect width="4" height="4" x="52" y="20" fill="#FFAA01"/><rect width="4" height="4" x="52" y="28" fill="#FFF900"/><rect width="4" height="4" x="52" y="23.999" fill="#FFF900"/><rect width="4" height="4" x="56" y="20" fill="#FFF900"/><rect width="4" height="4" x="56" y="23.999" fill="#FFF900"/><rect width="4" height="4" x="56" y="28" fill="#FFF900"/><rect width="4" height="4" x="56" y="32.001" fill="#FFF900"/><rect width="4" height="4" x="60" y="20" fill="#FFF900"/><rect width="4" height="4" x="60" y="23.999" fill="#FFF900"/><rect width="4" height="4" x="60" y="28" fill="#FFF900"/><rect width="4" height="4" x="60" y="32.001" fill="#DEEF18"/><rect width="4" height="4" x="52" y="32.001" fill="#FFF900"/><rect width="4" height="4" x="48" y="36" fill="#FFF900"/><rect width="4" height="4" x="48" y="40.001" fill="#FFF900"/><rect width="4" height="4" x="48" y="43.999" fill="#DEEF18"/><rect width="4" height="4" x="48" y="48" fill="#DEEF18"/><rect width="4" height="4" x="52" y="36" fill="#FFF900"/><rect width="4" height="4" x="52" y="43.999" fill="#DEEF18"/><rect width="4" height="4" x="52" y="40.001" fill="#DEEF18"/><rect width="4" height="4" x="56" y="36" fill="#DEEF18"/><rect width="4" height="4" x="56" y="40.001" fill="#DEEF18"/><rect width="4" height="4" x="56" y="43.999" fill="#DEEF18"/><rect width="4" height="4" x="56" y="48" fill="#B6E718"/><rect width="4" height="4" x="60" y="36" fill="#DEEF18"/><rect width="4" height="4" x="60" y="40.001" fill="#DEEF18"/><rect width="4" height="4" x="60" y="43.999" fill="#B6E718"/><rect width="4" height="4" x="60" y="48" fill="#B6E718"/><rect width="4" height="4" x="52" y="48" fill="#DEEF18"/><rect width="4" height="4" x="48" y="51.999" fill="#DEEF18"/><rect width="4" height="4" x="48" y="56" fill="#B6E718"/><rect width="4" height="4" x="48" y="60.001" fill="#B6E718"/><rect width="4" height="4" x="48" y="64" fill="#B6E718"/><rect width="4" height="4" x="52" y="51.999" fill="#B6E718"/><rect width="4" height="4" x="52" y="60.001" fill="#B6E718"/><rect width="4" height="4" x="52" y="56" fill="#B6E718"/><rect width="4" height="4" x="56" y="51.999" fill="#B6E718"/><rect width="4" height="4" x="56" y="56" fill="#B6E718"/><rect width="4" height="4" x="56" y="60.001" fill="#00E895"/><rect width="4" height="4" x="56" y="64" fill="#00E895"/><rect width="4" height="4" x="60" y="51.999" fill="#B6E718"/><rect width="4" height="4" x="60" y="56" fill="#00E895"/><rect width="4" height="4" x="60" y="60.001" fill="#00E895"/><rect width="4" height="4" x="60" y="64" fill="#00E895"/><rect width="4" height="4" x="52" y="64" fill="#00E895"/><rect width="4" height="4" x="64" y="15.999" fill="#FFF900"/><rect width="4" height="4" x="72" y="15.999" fill="#FFF900"/><rect width="4" height="4" x="76" y="15.999" fill="#DEEF18"/><rect width="4" height="4" x="68" y="15.999" fill="#FFF900"/><rect width="4" height="4" x="64" y="20" fill="#FFF900"/><rect width="4" height="4" x="64" y="23.999" fill="#FFF900"/><rect width="4" height="4" x="64" y="28" fill="#DEEF18"/><rect width="4" height="4" x="64" y="32.001" fill="#DEEF18"/><rect width="4" height="4" x="68" y="20" fill="#FFF900"/><rect width="4" height="4" x="68" y="28" fill="#DEEF18"/><rect width="4" height="4" x="68" y="23.999" fill="#DEEF18"/><rect width="4" height="4" x="72" y="20" fill="#DEEF18"/><rect width="4" height="4" x="72" y="23.999" fill="#DEEF18"/><rect width="4" height="4" x="72" y="28" fill="#DEEF18"/><rect width="4" height="4" x="72" y="32.001" fill="#B6E718"/><rect width="4" height="4" x="76" y="20" fill="#DEEF18"/><rect width="4" height="4" x="76" y="23.999" fill="#DEEF18"/><rect width="4" height="4" x="76" y="28" fill="#B6E718"/><rect width="4" height="4" x="76" y="32.001" fill="#B6E718"/><rect width="4" height="4" x="68" y="32.001" fill="#DEEF18"/><rect width="4" height="4" x="64" y="36" fill="#DEEF18"/><rect width="4" height="4" x="64" y="40.001" fill="#B6E718"/><rect width="4" height="4" x="64" y="43.999" fill="#B6E718"/><rect width="4" height="4" x="64" y="48" fill="#B6E718"/><rect width="4" height="4" x="68" y="36" fill="#B6E718"/><rect width="4" height="4" x="68" y="43.999" fill="#B6E718"/><rect width="4" height="4" x="68" y="40.001" fill="#B6E718"/><rect width="4" height="4" x="72" y="36" fill="#B6E718"/><rect width="4" height="4" x="72" y="40.001" fill="#B6E718"/><rect width="4" height="4" x="72" y="43.999" fill="#00E895"/><rect width="4" height="4" x="72" y="48" fill="#00E895"/><rect width="4" height="4" x="76" y="36" fill="#B6E718"/><rect width="4" height="4" x="76" y="40.001" fill="#00E895"/><rect width="4" height="4" x="76" y="43.999" fill="#00E895"/><rect width="4" height="4" x="76" y="48" fill="#00E895"/><rect width="4" height="4" x="68" y="48" fill="#00E895"/><rect width="4" height="4" x="64" y="51.999" fill="#00E895"/><rect width="4" height="4" x="64" y="56" fill="#00E895"/><rect width="4" height="4" x="64" y="60.001" fill="#00E895"/><rect width="4" height="4" x="64" y="64" fill="#00E895"/><rect width="4" height="4" x="68" y="51.999" fill="#00E895"/><rect width="4" height="4" x="68" y="60.001" fill="#00E895"/><rect width="4" height="4" x="68" y="56" fill="#00E895"/><rect width="4" height="4" x="72" y="51.999" fill="#00E895"/><rect width="4" height="4" x="72" y="56" fill="#00E895"/><rect width="4" height="4" x="72" y="60.001" fill="#00A5EE"/><rect width="4" height="4" x="72" y="64" fill="#00A5EE"/><rect width="4" height="4" x="76" y="51.999" fill="#00E895"/><rect width="4" height="4" x="76" y="56" fill="#00A5EE"/><rect width="4" height="4" x="76" y="60.001" fill="#00A5EE"/><rect width="4" height="4" x="76" y="64" fill="#00A5EE"/><rect width="4" height="4" x="68" y="64" fill="#00A5EE"/><rect width="4" height="4" x="80" y="15.999" fill="#DEEF18"/><rect width="4" height="4" x="88" y="15.999" fill="#B6E718"/><rect width="4" height="4" x="92" y="15.999" fill="#B6E718"/><rect width="4" height="4" x="84" y="15.999" fill="#DEEF18"/><rect width="4" height="4" x="80" y="20" fill="#DEEF18"/><rect width="4" height="4" x="80" y="23.999" fill="#B6E718"/><rect width="4" height="4" x="80" y="28" fill="#B6E718"/><rect width="4" height="4" x="80" y="32.001" fill="#B6E718"/><rect width="4" height="4" x="84" y="20" fill="#B6E718"/><rect width="4" height="4" x="84" y="28" fill="#B6E718"/><rect width="4" height="4" x="84" y="23.999" fill="#B6E718"/><rect width="4" height="4" x="88" y="20" fill="#B6E718"/><rect width="4" height="4" x="88" y="23.999" fill="#B6E718"/><rect width="4" height="4" x="88" y="28" fill="#00E895"/><rect width="4" height="4" x="88" y="32.001" fill="#00E895"/><rect width="4" height="4" x="92" y="20" fill="#B6E718"/><rect width="4" height="4" x="92" y="23.999" fill="#00E895"/><rect width="4" height="4" x="64" y="4.001" fill="#FFAA01"/><rect width="4" height="4" x="72" y="4.001" fill="#FFF900"/><rect width="4" height="4" x="76" y="4.001" fill="#FFF900"/><rect width="4" height="4" x="68" y="4.001" fill="#FFAA01"/><rect width="4" height="4" x="64" y="8" fill="#FFAA01"/><rect width="4" height="4" x="64" y="12.001" fill="#FFF900"/><rect width="4" height="4" x="68" y="8" fill="#FFF900"/><rect width="4" height="4" x="68" y="12.001" fill="#FFF900"/><rect width="4" height="4" x="72" y="8" fill="#FFF900"/><rect width="4" height="4" x="72" y="12.001" fill="#FFF900"/><rect width="4" height="4" x="76" y="8" fill="#FFF900"/><rect width="4" height="4" x="76" y="12.001" fill="#FFF900"/><rect width="4" height="4" x="80" y="4.001" fill="#FFF900"/><rect width="4" height="4" x="88" y="4.001" fill="#DEEF18"/><rect width="4" height="4" x="92" y="4.001" fill="#DEEF18"/><rect width="4" height="4" x="84" y="4.001" fill="#FFF900"/><rect width="4" height="4" x="80" y="8" fill="#FFF900"/><rect width="4" height="4" x="80" y="12.001" fill="#DEEF18"/><rect width="4" height="4" x="84" y="8" fill="#DEEF18"/><rect width="4" height="4" x="84" y="12.001" fill="#DEEF18"/><rect width="4" height="4" x="88" y="8" fill="#DEEF18"/><rect width="4" height="4" x="88" y="12.001" fill="#DEEF18"/><rect width="4" height="4" x="92" y="8" fill="#DEEF18"/><rect width="4" height="4" x="92" y="12.001" fill="#B6E718"/><rect width="4" height="4" x="92" y="28" fill="#00E895"/><rect width="4" height="4" x="92" y="32.001" fill="#00E895"/><rect width="4" height="4" x="84" y="32.001" fill="#00E895"/><rect width="4" height="4" x="80" y="36" fill="#00E895"/><rect width="4" height="4" x="80" y="40.001" fill="#00E895"/><rect width="4" height="4" x="80" y="43.999" fill="#00E895"/><rect width="4" height="4" x="80" y="48" fill="#00E895"/><rect width="4" height="4" x="84" y="36" fill="#00E895"/><rect width="4" height="4" x="84" y="43.999" fill="#00E895"/><rect width="4" height="4" x="84" y="40.001" fill="#00E895"/><rect width="4" height="4" x="88" y="36" fill="#00E895"/><rect width="4" height="4" x="88" y="40.001" fill="#00E895"/><rect width="4" height="4" x="88" y="43.999" fill="#00A5EE"/><rect width="4" height="4" x="88" y="48" fill="#00A5EE"/><rect width="4" height="4" x="92" y="36" fill="#00E895"/><rect width="4" height="4" x="92" y="40.001" fill="#00A5EE"/><rect width="4" height="4" x="92" y="43.999" fill="#00A5EE"/><rect width="4" height="4" x="92" y="48" fill="#00A5EE"/><rect width="4" height="4" x="84" y="48" fill="#00A5EE"/><rect width="4" height="4" x="80" y="51.999" fill="#00A5EE"/><rect width="4" height="4" x="80" y="56" fill="#00A5EE"/><rect width="4" height="4" x="80" y="60.001" fill="#00A5EE"/><rect width="4" height="4" x="80" y="64" fill="#00A5EE"/><rect width="4" height="4" x="84" y="51.999" fill="#00A5EE"/><rect width="4" height="4" x="84" y="60.001" fill="#00A5EE"/><rect width="4" height="4" x="84" y="56" fill="#00A5EE"/><rect width="4" height="4" x="88" y="51.999" fill="#00A5EE"/><rect width="4" height="4" x="88" y="56" fill="#00A5EE"/><rect width="4" height="4" x="88" y="60.001" fill="#A64AA7"/><rect width="4" height="4" x="88" y="64" fill="#A64AA7"/><rect width="4" height="4" x="92" y="51.999" fill="#00A5EE"/><rect width="4" height="4" x="92" y="56" fill="#A64AA7"/><rect width="4" height="4" x="92" y="60.001" fill="#A64AA7"/><rect width="4" height="4" x="92" y="64" fill="#A64AA7"/><rect width="4" height="4" x="96" y="15.999" fill="#B6E718"/><rect width="4" height="4" x="96" y="20" fill="#00E895"/><rect width="4" height="4" x="96" y="23.999" fill="#00E895"/><rect width="4" height="4" x="96" y="4.001" fill="#DEEF18"/><rect width="4" height="4" x="96" y="8" fill="#B6E718"/><rect width="4" height="4" x="96" y="12.001" fill="#B6E718"/><rect width="4" height="4" x="96" y="28" fill="#00E895"/><rect width="4" height="4" x="96" y="32.001" fill="#00E895"/><rect width="4" height="4" x="96" y="36" fill="#00A5EE"/><rect width="4" height="4" x="96" y="40.001" fill="#00A5EE"/><rect width="4" height="4" x="96" y="43.999" fill="#00A5EE"/><rect width="4" height="4" x="96" y="48" fill="#00A5EE"/><rect width="4" height="4" x="100" y="15.999" fill="#00E895"/><rect width="4" height="4" x="104" y="15.999" fill="#00E895"/><rect width="4" height="4" x="100" y="20" fill="#00E895"/><rect width="4" height="4" x="100" y="23.999" fill="#00E895"/><rect width="4" height="4" x="100" y="28" fill="#00E895"/><rect width="4" height="4" x="100" y="32.001" fill="#00A5EE"/><rect width="4" height="4" x="104" y="20" fill="#00E895"/><rect width="4" height="4" x="104" y="23.999" fill="#00E895"/><rect width="4" height="4" x="104" y="28" fill="#00A5EE"/><rect width="4" height="4" x="104" y="32.001" fill="#00A5EE"/><rect width="4" height="4" x="100" y="36" fill="#00A5EE"/><rect width="4" height="4" x="100" y="40.001" fill="#00A5EE"/><rect width="4" height="4" x="100" y="43.999" fill="#00A5EE"/><rect width="4" height="4" x="100" y="48" fill="#A64AA7"/><rect width="4" height="4" x="104" y="36" fill="#00A5EE"/><rect width="4" height="4" x="104" y="40.001" fill="#00A5EE"/><rect width="4" height="4" x="104" y="43.999" fill="#A64AA7"/><rect width="4" height="4" x="104" y="48" fill="#A64AA7"/><rect width="4" height="4" x="108" y="15.999" fill="#00E895"/><rect width="4" height="4" x="108" y="20" fill="#00E895"/><rect width="4" height="4" x="108" y="23.999" fill="#00A5EE"/><rect width="4" height="4" x="108" y="28" fill="#00A5EE"/><rect width="4" height="4" x="108" y="32.001" fill="#00A5EE"/><rect width="4" height="4" x="108" y="36" fill="#00A5EE"/><rect width="4" height="4" x="108" y="40.001" fill="#A64AA7"/><rect width="4" height="4" x="108" y="43.999" fill="#A64AA7"/><rect width="4" height="4" x="108" y="48" fill="#A64AA7"/><rect width="4" height="4" x="96" y="51.999" fill="#A64AA7"/><rect width="4" height="4" x="96" y="56" fill="#A64AA7"/><rect width="4" height="4" x="96" y="60.001" fill="#A64AA7"/><rect width="4" height="4" x="96" y="64" fill="#A64AA7"/><rect width="4" height="4" x="84" y="64" fill="#A64AA7"/><rect width="4" height="4" x="32" y="68.001" fill="#DEEF18"/><rect width="4" height="4" x="32" y="71.999" fill="#B6E718"/><rect width="4" height="4" x="28" y="68.001" fill="#DEEF18"/><rect width="4" height="4" x="28" y="71.999" fill="#DEEF18"/><rect width="4" height="4" x="36" y="68.001" fill="#B6E718"/><rect width="4" height="4" x="40" y="68.001" fill="#B6E718"/><rect width="4" height="4" x="40" y="71.999" fill="#B6E718"/><rect width="4" height="4" x="44" y="68.001" fill="#B6E718"/><rect width="4" height="4" x="44" y="71.999" fill="#00E895"/><rect width="4" height="4" x="36" y="71.999" fill="#B6E718"/><rect width="4" height="4" x="24" y="68.001" fill="#DEEF18"/><rect width="4" height="4" x="24" y="71.999" fill="#DEEF18"/><rect width="4" height="4" x="48" y="68.001" fill="#00E895"/><rect width="4" height="4" x="48" y="71.999" fill="#00E895"/><rect width="4" height="4" x="52" y="68.001" fill="#00E895"/><rect width="4" height="4" x="56" y="68.001" fill="#00E895"/><rect width="4" height="4" x="56" y="71.999" fill="#00E895"/><rect width="4" height="4" x="60" y="68.001" fill="#00E895"/><rect width="4" height="4" x="60" y="71.999" fill="#00A5EE"/><rect width="4" height="4" x="52" y="71.999" fill="#00E895"/><rect width="4" height="4" x="64" y="68.001" fill="#00A5EE"/><rect width="4" height="4" x="64" y="71.999" fill="#00A5EE"/><rect width="4" height="4" x="68" y="68.001" fill="#00A5EE"/><rect width="4" height="4" x="72" y="68.001" fill="#00A5EE"/><rect width="4" height="4" x="72" y="71.999" fill="#00A5EE"/><rect width="4" height="4" x="76" y="68.001" fill="#00A5EE"/><rect width="4" height="4" x="76" y="71.999" fill="#A64AA7"/><rect width="4" height="4" x="68" y="71.999" fill="#00A5EE"/><rect width="4" height="4" x="36" y="76" fill="#B6E718"/><rect width="4" height="4" x="40" y="76" fill="#00E895"/><rect width="4" height="4" x="40" y="79.999" fill="#00E895"/><rect width="4" height="4" x="44" y="76" fill="#00E895"/><rect width="4" height="4" x="44" y="79.999" fill="#00E895"/><rect width="4" height="4" x="36" y="79.999" fill="#00E895"/><rect width="4" height="4" x="48" y="76" fill="#00E895"/><rect width="4" height="4" x="48" y="79.999" fill="#00E895"/><rect width="4" height="4" x="52" y="76" fill="#00E895"/><rect width="4" height="4" x="56" y="76" fill="#00A5EE"/><rect width="4" height="4" x="56" y="79.999" fill="#00A5EE"/><rect width="4" height="4" x="60" y="76" fill="#00A5EE"/><rect width="4" height="4" x="60" y="79.999" fill="#00A5EE"/><rect width="4" height="4" x="52" y="79.999" fill="#00A5EE"/><rect width="4" height="4" x="64" y="76" fill="#00A5EE"/><rect width="4" height="4" x="64" y="79.999" fill="#00A5EE"/><rect width="4" height="4" x="68" y="76" fill="#00A5EE"/><rect width="4" height="4" x="72" y="76" fill="#A64AA7"/><rect width="4" height="4" x="72" y="79.999" fill="#A64AA7"/><rect width="4" height="4" x="68" y="79.999" fill="#A64AA7"/><rect width="4" height="4" x="36" y="84" fill="#00E895"/><rect width="4" height="4" x="40" y="84" fill="#00E895"/><rect width="4" height="4" x="40" y="88.001" fill="#00E895"/><rect width="4" height="4" x="44" y="84" fill="#00E895"/><rect width="4" height="4" x="44" y="88.001" fill="#00A5EE"/><rect width="4" height="4" x="36" y="88.001" fill="#00E895"/><rect width="4" height="4" x="48" y="84" fill="#00A5EE"/><rect width="4" height="4" x="48" y="88.001" fill="#00A5EE"/><rect width="4" height="4" x="52" y="84" fill="#00A5EE"/><rect width="4" height="4" x="56" y="84" fill="#00A5EE"/><rect width="4" height="4" x="56" y="88.001" fill="#00A5EE"/><rect width="4" height="4" x="60" y="84" fill="#00A5EE"/><rect width="4" height="4" x="60" y="88.001" fill="#A64AA7"/><rect width="4" height="4" x="52" y="88.001" fill="#00A5EE"/><rect width="4" height="4" x="48" y="92" fill="#00A5EE"/><rect width="4" height="4" x="56" y="92" fill="#A64AA7"/><rect width="4" height="4" x="60" y="92" fill="#A64AA7"/><rect width="4" height="4" x="52" y="92" fill="#00A5EE"/><rect width="4" height="4" x="48" y="96.001" fill="#00A5EE"/><rect width="4" height="4" x="48" y="99.999" fill="#A64AA7"/><rect width="4" height="4" x="52" y="96.001" fill="#A64AA7"/><rect width="4" height="4" x="56" y="96.001" fill="#A64AA7"/><rect width="4" height="4" x="56" y="99.999" fill="#A64AA7"/><rect width="4" height="4" x="60" y="96.001" fill="#A64AA7"/><rect width="4" height="4" x="60" y="99.999" fill="#A64AA7"/><rect width="4" height="4" x="52" y="99.999" fill="#A64AA7"/><rect width="4" height="4" x="64" y="84" fill="#A64AA7"/><rect width="4" height="4" x="64" y="88.001" fill="#A64AA7"/><rect width="4" height="4" x="68" y="84" fill="#A64AA7"/><rect width="4" height="4" x="72" y="84" fill="#A64AA7"/><rect width="4" height="4" x="72" y="88.001" fill="#A64AA7"/><rect width="4" height="4" x="68" y="88.001" fill="#A64AA7"/><rect width="4" height="4" x="80" y="68.001" fill="#A64AA7"/><rect width="4" height="4" x="80" y="71.999" fill="#A64AA7"/><rect width="4" height="4" x="84" y="68.001" fill="#A64AA7"/><rect width="4" height="4" x="84" y="71.999" fill="#A64AA7"/><rect width="4" height="4" x="8" y="15.999" fill="#F11822"/><rect width="4" height="4" x="4" y="15.999" fill="#F11822"/><rect width="4" height="4" y="15.999" fill="#F11822"/><rect width="4" height="4" x="12" y="20" fill="#FE4422"/><rect width="4" height="4" x="8" y="20" fill="#FE4422"/><rect width="4" height="4" x="4" y="20" fill="#F11822"/><rect width="4" height="4" y="20" fill="#F11822"/><rect width="4" height="4" x="12" y="23.999" fill="#FE4422"/><rect width="4" height="4" x="8" y="23.999" fill="#FE4422"/><rect width="4" height="4" x="4" y="23.999" fill="#FE4422"/><rect width="4" height="4" y="23.999" fill="#F11822"/><rect width="4" height="4" x="12" y="28" fill="#FE4422"/><rect width="4" height="4" x="8" y="28" fill="#FE4422"/><rect width="4" height="4" x="4" y="28" fill="#FE4422"/><rect width="4" height="4" y="28" fill="#FE4422"/><rect width="4" height="4" x="12" y="32.001" fill="#FF8825"/><rect width="4" height="4" x="8" y="32.001" fill="#FE4422"/><rect width="4" height="4" x="4" y="32.001" fill="#FE4422"/><rect width="4" height="4" y="32.001" fill="#FE4422"/><rect width="4" height="4" x="12" y="36" fill="#FF8825"/><rect width="4" height="4" x="8" y="36" fill="#FF8825"/><rect width="4" height="4" x="4" y="36" fill="#FE4422"/><rect width="4" height="4" y="36" fill="#FE4422"/><rect width="4" height="4" x="12" y="40.001" fill="#FF8825"/><rect width="4" height="4" x="8" y="40.001" fill="#FF8825"/><rect width="4" height="4" x="4" y="40.001" fill="#FF8825"/><rect width="4" height="4" y="40.001" fill="#FE4422"/><rect width="4" height="4" x="12" y="43.999" fill="#FF8825"/><rect width="4" height="4" x="8" y="43.999" fill="#FF8825"/><rect width="4" height="4" x="4" y="43.999" fill="#FF8825"/><rect width="4" height="4" y="43.999" fill="#FF8825"/><rect width="4" height="4" x="12" y="48" fill="#FFAA01"/><rect width="4" height="4" x="8" y="48" fill="#FF8825"/><rect width="4" height="4" x="4" y="48" fill="#FF8825"/><rect width="4" height="4" y="48" fill="#FF8825"/></svg>